HIERARCHY
ROOT reference
{
  OFFSET 0 0 0
  CHANNELS 6 Xposition Yposition Zposition Zrotation Xrotation Yrotation
  JOINT Hips
  {
    OFFSET 340.57 87.5694 214.797
    CHANNELS 3 Zrotation Xrotation Yrotation
    JOINT RightUpLeg
    {
      OFFSET -9.35418 -1.55218 -0.019184
      CHANNELS 3 Zrotation Xrotation Yrotation
      JOINT RightLeg
      {
        OFFSET -0.0482219 -41.8948 0.0725956
        CHANNELS 3 Zrotation Xrotation Yrotation
        JOINT RightFoot
        {
          OFFSET -1.00159 -42.3965 -1.97064
          CHANNELS 3 Zrotation Xrotation Yrotation
          End Site
          {
            OFFSET 0 -7.69 17.5
          }
        }
      }
    }
    JOINT LeftUpLeg
    {
      OFFSET 9.33628 -1.64535 -0.0795185
      CHANNELS 3 Zrotation Xrotation Yrotation
      JOINT LeftLeg
      {
        OFFSET 0.124871 -41.8725 -0.08325
        CHANNELS 3 Zrotation Xrotation Yrotation
        JOINT LeftFoot
        {
          OFFSET 0.728222 -40.8097 2.1196
          CHANNELS 3 Zrotation Xrotation Yrotation
          End Site
          {
            OFFSET 0 -7.69 17.5
          }
        }
      }
    }
    JOINT Spine
    {
      OFFSET -0.0135102 14.2943 0.0647361
      CHANNELS 3 Zrotation Xrotation Yrotation
      JOINT Spine1
      {
        OFFSET 0.0181502 9.72385 0.0148045
        CHANNELS 3 Zrotation Xrotation Yrotation
        JOINT Spine2
        {
          OFFSET 0.0557859 10.1166 -0.00979693
          CHANNELS 3 Zrotation Xrotation Yrotation
          JOINT Spine3
          {
            OFFSET 0.0359868 9.71757 0.00306838
            CHANNELS 3 Zrotation Xrotation Yrotation
            JOINT Neck
            {
              OFFSET 0.139197 10.3803 0.0501204
              CHANNELS 3 Zrotation Xrotation Yrotation
              JOINT Head
              {
                OFFSET 0.148012 9.47645 -0.000545472
                CHANNELS 3 Zrotation Xrotation Yrotation
                End Site
                {
                  OFFSET 0 15.95 0
                }
              }
            }
            JOINT RightShoulder
            {
              OFFSET -3.16276 6.92807 0.0312834
              CHANNELS 3 Zrotation Xrotation Yrotation
              JOINT RightArm
              {
                OFFSET -12.7681 0.0492996 0.0890957
                CHANNELS 3 Zrotation Xrotation Yrotation
                JOINT RightForeArm
                {
                  OFFSET -26.4761 -0.090776 0.147076
                  CHANNELS 3 Zrotation Xrotation Yrotation
                  JOINT RightHand
                  {
                    OFFSET -25.9655 0.0607057 -0.248467
                    CHANNELS 3 Zrotation Xrotation Yrotation
                    JOINT RightHandThumb1
                    {
                      OFFSET -2.48905 0.190105 3.12053
                      CHANNELS 3 Zrotation Xrotation Yrotation
                      JOINT RightHandThumb2
                      {
                        OFFSET -3.68274 0 0
                        CHANNELS 3 Zrotation Xrotation Yrotation
                        JOINT RightHandThumb3
                        {
                          OFFSET -2.55832 0 0
                          CHANNELS 3 Zrotation Xrotation Yrotation
                          End Site
                          {
                            OFFSET -2.194 0 0
                          }
                        }
                      }
                    }
                    JOINT RightInHandIndex
                    {
                      OFFSET -3.22368 0.508421 1.97842
                      CHANNELS 3 Zrotation Xrotation Yrotation
                      JOINT RightHandIndex1
                      {
                        OFFSET -5.21684 -0.091368 0.999158
                        CHANNELS 3 Zrotation Xrotation Yrotation
                        JOINT RightHandIndex2
                        {
                          OFFSET -3.61937 0 0
                          CHANNELS 3 Zrotation Xrotation Yrotation
                          JOINT RightHandIndex3
                          {
                            OFFSET -2.0521 0 0
                            CHANNELS 3 Zrotation Xrotation Yrotation
                            End Site
                            {
                              OFFSET -1.805 0 0
                            }
                          }
                        }
                      }
                    }
                    JOINT RightInHandMiddle
                    {
                      OFFSET -3.38211 0.517263 0.756737
                      CHANNELS 3 Zrotation Xrotation Yrotation
                      JOINT RightHandMiddle1
                      {
                        OFFSET -5.17411 -0.084 0.313895
                        CHANNELS 3 Zrotation Xrotation Yrotation
                        JOINT RightHandMiddle2
                        {
                          OFFSET -3.94947 0 0
                          CHANNELS 3 Zrotation Xrotation Yrotation
                          JOINT RightHandMiddle3
                          {
                            OFFSET -2.47579 0 0
                            CHANNELS 3 Zrotation Xrotation Yrotation
                            End Site
                            {
                              OFFSET -1.975 0 0
                            }
                          }
                        }
                      }
                    }
                    JOINT RightInHandRing
                    {
                      OFFSET -3.36516 0.537895 -0.128947
                      CHANNELS 3 Zrotation Xrotation Yrotation
                      JOINT RightHandRing1
                      {
                        OFFSET -4.63474 -0.022105 -0.478947
                        CHANNELS 3 Zrotation Xrotation Yrotation
                        JOINT RightHandRing2
                        {
                          OFFSET -3.44238 0 0
                          CHANNELS 3 Zrotation Xrotation Yrotation
                          JOINT RightHandRing3
                          {
                            OFFSET -2.3881 0 0
                            CHANNELS 3 Zrotation Xrotation Yrotation
                            End Site
                            {
                              OFFSET -1.857 0 0
                            }
                          }
                        }
                      }
                    }
                    JOINT RightInHandPinky
                    {
                      OFFSET -3.16105 0.469368 -1.20179
                      CHANNELS 3 Zrotation Xrotation Yrotation
                      JOINT RightHandPinky1
                      {
                        OFFSET -4.14105 -0.022105 -1.09053
                        CHANNELS 3 Zrotation Xrotation Yrotation
                        JOINT RightHandPinky2
                        {
                          OFFSET -2.75653 0 0
                          CHANNELS 3 Zrotation Xrotation Yrotation
                          JOINT RightHandPinky3
                          {
                            OFFSET -1.74189 0 0
                            CHANNELS 3 Zrotation Xrotation Yrotation
                            End Site
                            {
                              OFFSET -1.645 0 0
                            }
                          }
                        }
                      }
                    }
                  }
                }
              }
            }
            JOINT LeftShoulder
            {
              OFFSET 3.20588 6.97332 0.0254387
              CHANNELS 3 Zrotation Xrotation Yrotation
              JOINT LeftArm
              {
                OFFSET 12.8648 0.0341024 0.0247643
                CHANNELS 3 Zrotation Xrotation Yrotation
                JOINT LeftForeArm
                {
                  OFFSET 26.5059 -0.0470976 -0.0807017
                  CHANNELS 3 Zrotation Xrotation Yrotation
                  JOINT LeftHand
                  {
                    OFFSET 26.0013 -0.0100885 -0.0649647
                    CHANNELS 3 Zrotation Xrotation Yrotation
                    JOINT LeftHandThumb1
                    {
                      OFFSET 2.48905 0.190105 3.12053
                      CHANNELS 3 Zrotation Xrotation Yrotation
                      JOINT LeftHandThumb2
                      {
                        OFFSET 3.68274 0 0
                        CHANNELS 3 Zrotation Xrotation Yrotation
                        JOINT LeftHandThumb3
                        {
                          OFFSET 2.55832 0 0
                          CHANNELS 3 Zrotation Xrotation Yrotation
                          End Site
                          {
                            OFFSET 2.194 0 0
                          }
                        }
                      }
                    }
                    JOINT LeftInHandIndex
                    {
                      OFFSET 3.22368 0.508421 1.97842
                      CHANNELS 3 Zrotation Xrotation Yrotation
                      JOINT LeftHandIndex1
                      {
                        OFFSET 5.21684 -0.091368 0.999158
                        CHANNELS 3 Zrotation Xrotation Yrotation
                        JOINT LeftHandIndex2
                        {
                          OFFSET 3.61937 0 0
                          CHANNELS 3 Zrotation Xrotation Yrotation
                          JOINT LeftHandIndex3
                          {
                            OFFSET 2.0521 0 0
                            CHANNELS 3 Zrotation Xrotation Yrotation
                            End Site
                            {
                              OFFSET 1.805 0 0
                            }
                          }
                        }
                      }
                    }
                    JOINT LeftInHandMiddle
                    {
                      OFFSET 3.38211 0.517263 0.756737
                      CHANNELS 3 Zrotation Xrotation Yrotation
                      JOINT LeftHandMiddle1
                      {
                        OFFSET 5.17411 -0.084 0.313895
                        CHANNELS 3 Zrotation Xrotation Yrotation
                        JOINT LeftHandMiddle2
                        {
                          OFFSET 3.94947 0 0
                          CHANNELS 3 Zrotation Xrotation Yrotation
                          JOINT LeftHandMiddle3
                          {
                            OFFSET 2.47579 0 0
                            CHANNELS 3 Zrotation Xrotation Yrotation
                            End Site
                            {
                              OFFSET 1.975 0 0
                            }
                          }
                        }
                      }
                    }
                    JOINT LeftInHandRing
                    {
                      OFFSET 3.36516 0.537895 -0.128947
                      CHANNELS 3 Zrotation Xrotation Yrotation
                      JOINT LeftHandRing1
                      {
                        OFFSET 4.63474 -0.022105 -0.478947
                        CHANNELS 3 Zrotation Xrotation Yrotation
                        JOINT LeftHandRing2
                        {
                          OFFSET 3.44238 0 0
                          CHANNELS 3 Zrotation Xrotation Yrotation
                          JOINT LeftHandRing3
                          {
                            OFFSET 2.3881 0 0
                            CHANNELS 3 Zrotation Xrotation Yrotation
                            End Site
                            {
                              OFFSET 1.857 0 0
                            }
                          }
                        }
                      }
                    }
                    JOINT LeftInHandPinky
                    {
                      OFFSET 3.16105 0.469368 -1.20179
                      CHANNELS 3 Zrotation Xrotation Yrotation
                      JOINT LeftHandPinky1
                      {
                        OFFSET 4.14105 -0.022105 -1.09053
                        CHANNELS 3 Zrotation Xrotation Yrotation
                        JOINT LeftHandPinky2
                        {
                          OFFSET 2.75653 0 0
                          CHANNELS 3 Zrotation Xrotation Yrotation
                          JOINT LeftHandPinky3
                          {
                            OFFSET 1.74189 0 0
                            CHANNELS 3 Zrotation Xrotation Yrotation
                            End Site
                            {
                              OFFSET 1.645 0 0
                            }
                          }
                        }
                      }
                    }
                  }
                }
              }
            }
          }
        }
      }
    }
  }
}
MOTION
Frames: 2
Frame Time: 0.00833333
7.500000000000000000e+02 0.000000000000000000e+00 0.000000000000000000e+00 0.000000000000000000e+00 0.000000000000000000e+00 0.000000000000000000e+00 -6.046551616355150260e-01 2.702131416205325376e+00 6.644557592658680178e+00 -6.684568998326796851e+00 1.631725359933972941e+00 -8.136623354205214653e+00 1.707129621689505716e-01 1.759659555431523970e+00 -7.758645160595779577e-01 1.412475933489187208e+00 2.464976562975257079e-01 -1.050182474200275218e+00 -1.370140581841073013e+00 -4.563288157661047784e+00 -4.056716651255431572e+00 1.221216774719271037e+00 -3.493092417524249482e-01 6.207295146663344143e-01 2.032491048192991701e-01 4.192710292998232724e+00 -2.052313426516107153e+00 -2.749469824058063394e-01 4.811259343328233573e-01 1.779514964234331975e+00 -9.508637497701146260e-04 1.574418097311259535e-01 4.632885675410358672e-01 9.088213961378082545e-03 2.274810748116831705e-01 7.330132623951438609e-01 2.965145815366412863e-01 1.560933570191183895e-01 -4.766379891578090833e-01 5.865108946009561786e-02 -3.886954748022187767e-01 5.698101587233745935e-01 4.824245214012187866e+00 3.640215316703665938e+00 -9.197786996595452180e+00 1.700247344787115256e-01 -2.437667069920088192e+00 1.324927437210073888e+00 -4.688451866983596616e+00 7.292887099930345229e+00 4.062756742524354370e-01 -8.768246024114917603e+00 -1.657860375798106745e+01 -1.048468267057899972e+01 -3.755518801950600949e+00 2.513787049909874671e+00 -2.688302890402803680e+00 0.000000000000000000e+00 0.000000000000000000e+00 0.000000000000000000e+00 -1.022136771869907281e-15 -2.383642934651925262e-16 0.000000000000000000e+00 -8.272005567754446785e-15 3.255156087471760100e-15 0.000000000000000000e+00 8.729827017074080728e-17 1.514883781027911580e-15 3.084732363204710256e-15 0.000000000000000000e+00 0.000000000000000000e+00 0.000000000000000000e+00 0.000000000000000000e+00 -4.316654643282999664e-15 -4.564139850711873677e-15 0.000000000000000000e+00 -1.041140191889618241e-15 -1.252201968722480385e-14 8.729827017074080728e-17 1.514883781027911580e-15 3.084732363204710256e-15 0.000000000000000000e+00 -3.638357551341517792e-15 -1.852979278084920362e-15 0.000000000000000000e+00 -2.530345935319668260e-15 -1.329005874350013312e-14 0.000000000000000000e+00 -2.326961403566651167e-15 -9.369734223438533588e-15 8.729827017074080728e-17 1.514883781027911580e-15 3.084732363204710256e-15 0.000000000000000000e+00 0.000000000000000000e+00 0.000000000000000000e+00 0.000000000000000000e+00 -1.976306914591852168e-15 -8.039434497379761171e-15 0.000000000000000000e+00 -1.792312335066298733e-15 -1.167388394353707122e-14 8.729827017074080728e-17 1.514883781027911580e-15 3.084732363204710256e-15 0.000000000000000000e+00 0.000000000000000000e+00 0.000000000000000000e+00 0.000000000000000000e+00 1.701587373918103287e-15 -7.987220057635351410e-17 0.000000000000000000e+00 2.032213028763080142e-16 -5.426717283630369096e-15 -4.222417827368797338e-01 1.080806338035927433e-01 3.224703609512708624e+00 1.090099199846302325e+00 -5.382009477552880394e-01 -6.506482927167942520e-01 3.238893249694012155e+00 -1.547781071715509604e+01 1.039823754300750736e+01 -3.634789080091269664e-01 1.482526798415587432e+00 1.462874944754650297e+00 0.000000000000000000e+00 0.000000000000000000e+00 0.000000000000000000e+00 3.380270005922034037e-15 -5.468001904941792476e-15 0.000000000000000000e+00 1.458302392225444667e-15 -2.577527831490027588e-15 0.000000000000000000e+00 3.330549020224952594e-15 2.111464301904194473e-15 -9.566101869581500500e-17 0.000000000000000000e+00 0.000000000000000000e+00 0.000000000000000000e+00 0.000000000000000000e+00 -6.424333924890129909e-16 1.389077285967276371e-15 0.000000000000000000e+00 -1.232262195477763775e-15 6.697793221015820851e-16 3.330549020224952594e-15 2.111464301904194473e-15 -9.566101869581500500e-17 0.000000000000000000e+00 -4.107422555830016890e-15 5.779452331153227122e-15 0.000000000000000000e+00 -3.920337402760075896e-16 2.394317264974167490e-15 0.000000000000000000e+00 2.677521709495543822e-15 1.317531954234623658e-15 3.330549020224952594e-15 2.111464301904194473e-15 -9.566101869581500500e-17 0.000000000000000000e+00 0.000000000000000000e+00 0.000000000000000000e+00 0.000000000000000000e+00 1.773225071010714548e-15 6.530720494192619457e-15 0.000000000000000000e+00 -3.272366077582756616e-16 2.690750707450802356e-15 3.330549020224952594e-15 2.111464301904194473e-15 -9.566101869581500500e-17 0.000000000000000000e+00 0.000000000000000000e+00 0.000000000000000000e+00 0.000000000000000000e+00 -3.651281643405710671e-15 5.146251680215703806e-15 0.000000000000000000e+00 -2.131907081129834690e-15 1.659227087082764442e-15
7.500000000000000000e+02 0.000000000000000000e+00 0.000000000000000000e+00 0.000000000000000000e+00 0.000000000000000000e+00 0.000000000000000000e+00 -5.805080658398495963e-01 2.700920556939155226e+00 6.545388409590218615e+00 -6.766886160270701112e+00 1.403132209201154001e+00 -8.181056843741581375e+00 1.379712083222351393e-01 1.801897390960037981e+00 -6.917522746403650391e-01 1.451345432389871348e+00 2.339892113832206244e-01 -1.100294539173461761e+00 -1.271241442141101130e+00 -4.728055125973837036e+00 -3.823799735860430982e+00 1.291843160283830283e+00 -1.974902755752084849e-01 5.862698769054496273e-01 1.526320654241213048e-01 4.173486870724778974e+00 -2.081056468657387803e+00 -2.714095129026442565e-01 5.083830212647152402e-01 1.782760645248441245e+00 -9.018056848377983305e-04 1.620949343957226174e-01 4.615129251043116332e-01 9.390407298071355713e-03 2.342219658330687015e-01 7.327433543484868084e-01 2.895946088166361232e-01 1.625534160857123878e-01 -4.770150332512537728e-01 5.210293938792426305e-02 -3.712006585644002654e-01 5.059585892040791011e-01 4.684111651629464745e+00 3.712625627448681520e+00 -9.205955770577915587e+00 1.809264071329599877e-01 -2.436799830577560222e+00 1.261809976853269566e+00 -4.354368481661472501e+00 7.658770253400528638e+00 1.411331901620481444e-02 -8.218172558499382774e+00 -1.673876180516542789e+01 -1.001382962398615462e+01 -3.804139204672749131e+00 2.523185217915847822e+00 -2.598738256308615657e+00 0.000000000000000000e+00 0.000000000000000000e+00 0.000000000000000000e+00 -9.533065818372579632e-16 -2.264903205176903633e-16 0.000000000000000000e+00 -7.671879891284987712e-15 3.136783259943925664e-15 0.000000000000000000e+00 9.934359130275147120e-17 1.336618908822349799e-15 2.949484669445748599e-15 0.000000000000000000e+00 0.000000000000000000e+00 0.000000000000000000e+00 0.000000000000000000e+00 -4.189893103633693073e-15 -4.097246747877064727e-15 0.000000000000000000e+00 -1.048339528425819660e-15 -1.188805489793134350e-14 9.934359130275147120e-17 1.336618908822349799e-15 2.949484669445748599e-15 0.000000000000000000e+00 -3.352384406610936257e-15 -1.658360470650046931e-15 0.000000000000000000e+00 -2.389099186967837449e-15 -1.227279900936200119e-14 0.000000000000000000e+00 -2.248582220213730760e-15 -8.722333682097332659e-15 9.934359130275147120e-17 1.336618908822349799e-15 2.949484669445748599e-15 0.000000000000000000e+00 0.000000000000000000e+00 0.000000000000000000e+00 0.000000000000000000e+00 -1.741754559776795474e-15 -7.441120325416989162e-15 0.000000000000000000e+00 -1.647478507203046302e-15 -1.110482264434325750e-14 9.934359130275147120e-17 1.336618908822349799e-15 2.949484669445748599e-15 0.000000000000000000e+00 0.000000000000000000e+00 0.000000000000000000e+00 0.000000000000000000e+00 1.549731876025503298e-15 4.655988779099442084e-16 0.000000000000000000e+00 9.819558332593299677e-17 -5.082392953330664221e-15 -2.739641348923061992e-01 2.304573906782731441e-01 3.248232126476998438e+00 1.020159894082419916e+00 -5.133232056501351170e-01 -4.477910183266375910e-01 3.265959620089354587e+00 -1.508565214417972022e+01 1.071119418974244475e+01 -3.964616751655605786e-01 1.390141848487006726e+00 1.624830057018600948e+00 0.000000000000000000e+00 0.000000000000000000e+00 0.000000000000000000e+00 3.344893841322308277e-15 -5.185007974492573690e-15 0.000000000000000000e+00 1.528759188002909836e-15 -2.413841087241527353e-15 0.000000000000000000e+00 3.290932656314007116e-15 2.044701901810912967e-15 -6.982379581082868526e-18 0.000000000000000000e+00 0.000000000000000000e+00 0.000000000000000000e+00 0.000000000000000000e+00 -7.591138600778041860e-16 1.529278469051586605e-15 0.000000000000000000e+00 -1.144220912489019960e-15 7.382229831419598668e-16 3.290932656314007116e-15 2.044701901810912967e-15 -6.982379581082868526e-18 0.000000000000000000e+00 -3.994871788181053046e-15 5.582838961719348380e-15 0.000000000000000000e+00 -3.929475052750696454e-16 2.381257561066111208e-15 0.000000000000000000e+00 2.461968709352001928e-15 1.284737667576030486e-15 3.290932656314007116e-15 2.044701901810912967e-15 -6.982379581082868526e-18 0.000000000000000000e+00 0.000000000000000000e+00 0.000000000000000000e+00 0.000000000000000000e+00 1.780927063196709000e-15 6.253273814373218504e-15 0.000000000000000000e+00 -4.130105070747246790e-16 2.871241784696014190e-15 3.290932656314007116e-15 2.044701901810912967e-15 -6.982379581082868526e-18 0.000000000000000000e+00 0.000000000000000000e+00 0.000000000000000000e+00 0.000000000000000000e+00 -3.718369623661134800e-15 5.342851054557700917e-15 0.000000000000000000e+00 -1.960200203636170867e-15 1.882548324560887773e-15
